<svg id="container" width="975.5625" xmlns="http://www.w3.org/2000/svg" class="flowchart" height="855.359375" viewBox="0 0 975.5625 855.359375" role="graphics-document document" aria-roledescription="flowchart-v2"><style>#container{font-family:"trebuchet ms",verdana,arial,sans-serif;font-size:16px;fill:#333;}@keyframes edge-animation-frame{from{stroke-dashoffset:0;}}@keyframes dash{to{stroke-dashoffset:0;}}#container .edge-animation-slow{stroke-dasharray:9,5!important;stroke-dashoffset:900;animation:dash 50s linear infinite;stroke-linecap:round;}#container .edge-animation-fast{stroke-dasharray:9,5!important;stroke-dashoffset:900;animation:dash 20s linear infinite;stroke-linecap:round;}#container .error-icon{fill:#552222;}#container .error-text{fill:#552222;stroke:#552222;}#container .edge-thickness-normal{stroke-width:1px;}#container .edge-thickness-thick{stroke-width:3.5px;}#container .edge-pattern-solid{stroke-dasharray:0;}#container .edge-thickness-invisible{stroke-width:0;fill:none;}#container .edge-pattern-dashed{stroke-dasharray:3;}#container .edge-pattern-dotted{stroke-dasharray:2;}#container .marker{fill:#333333;stroke:#333333;}#container .marker.cross{stroke:#333333;}#container svg{font-family:"trebuchet ms",verdana,arial,sans-serif;font-size:16px;}#container p{margin:0;}#container .label{font-family:"trebuchet ms",verdana,arial,sans-serif;color:#333;}#container .cluster-label text{fill:#333;}#container .cluster-label span{color:#333;}#container .cluster-label span p{background-color:transparent;}#container .label text,#container span{fill:#333;color:#333;}#container .node rect,#container .node circle,#container .node ellipse,#container .node polygon,#container .node path{fill:#ECECFF;stroke:#9370DB;stroke-width:1px;}#container .rough-node .label text,#container .node .label text,#container .image-shape .label,#container .icon-shape .label{text-anchor:middle;}#container .node .katex path{fill:#000;stroke:#000;stroke-width:1px;}#container .rough-node .label,#container .node .label,#container .image-shape .label,#container .icon-shape .label{text-align:center;}#container .node.clickable{cursor:pointer;}#container .root .anchor path{fill:#333333!important;stroke-width:0;stroke:#333333;}#container .arrowheadPath{fill:#333333;}#container .edgePath .path{stroke:#333333;stroke-width:2.0px;}#container .flowchart-link{stroke:#333333;fill:none;}#container .edgeLabel{background-color:rgba(232,232,232, 0.8);text-align:center;}#container .edgeLabel p{background-color:rgba(232,232,232, 0.8);}#container .edgeLabel rect{opacity:0.5;background-color:rgba(232,232,232, 0.8);fill:rgba(232,232,232, 0.8);}#container .labelBkg{background-color:rgba(232, 232, 232, 0.5);}#container .cluster rect{fill:#ffffde;stroke:#aaaa33;stroke-width:1px;}#container .cluster text{fill:#333;}#container .cluster span{color:#333;}#container div.mermaidTooltip{position:absolute;text-align:center;max-width:200px;padding:2px;font-family:"trebuchet ms",verdana,arial,sans-serif;font-size:12px;background:hsl(80, 100%, 96.2745098039%);border:1px solid #aaaa33;border-radius:2px;pointer-events:none;z-index:100;}#container .flowchartTitleText{text-anchor:middle;font-size:18px;fill:#333;}#container rect.text{fill:none;stroke-width:0;}#container .icon-shape,#container .image-shape{background-color:rgba(232,232,232, 0.8);text-align:center;}#container .icon-shape p,#container .image-shape p{background-color:rgba(232,232,232, 0.8);padding:2px;}#container .icon-shape rect,#container .image-shape rect{opacity:0.5;background-color:rgba(232,232,232, 0.8);fill:rgba(232,232,232, 0.8);}#container .label-icon{display:inline-block;height:1em;overflow:visible;vertical-align:-0.125em;}#container .node .label-icon path{fill:currentColor;stroke:revert;stroke-width:revert;}#container :root{--mermaid-font-family:"trebuchet ms",verdana,arial,sans-serif;}</style><g><marker id="container_flowchart-v2-pointEnd" class="marker flowchart-v2" viewBox="0 0 10 10" refX="5" refY="5" markerUnits="userSpaceOnUse" markerWidth="8" markerHeight="8" orient="auto"><path d="M 0 0 L 10 5 L 0 10 z" class="arrowMarkerPath" style="stroke-width: 1; stroke-dasharray: 1, 0;"></path></marker><marker id="container_flowchart-v2-pointStart" class="marker flowchart-v2" viewBox="0 0 10 10" refX="4.5" refY="5" markerUnits="userSpaceOnUse" markerWidth="8" markerHeight="8" orient="auto"><path d="M 0 5 L 10 10 L 10 0 z" class="arrowMarkerPath" style="stroke-width: 1; stroke-dasharray: 1, 0;"></path></marker><marker id="container_flowchart-v2-circleEnd" class="marker flowchart-v2" viewBox="0 0 10 10" refX="11" refY="5" markerUnits="userSpaceOnUse" markerWidth="11" markerHeight="11" orient="auto"><circle cx="5" cy="5" r="5" class="arrowMarkerPath" style="stroke-width: 1; stroke-dasharray: 1, 0;"></circle></marker><marker id="container_flowchart-v2-circleStart" class="marker flowchart-v2" viewBox="0 0 10 10" refX="-1" refY="5" markerUnits="userSpaceOnUse" markerWidth="11" markerHeight="11" orient="auto"><circle cx="5" cy="5" r="5" class="arrowMarkerPath" style="stroke-width: 1; stroke-dasharray: 1, 0;"></circle></marker><marker id="container_flowchart-v2-crossEnd" class="marker cross flowchart-v2" viewBox="0 0 11 11" refX="12" refY="5.2" markerUnits="userSpaceOnUse" markerWidth="11" markerHeight="11" orient="auto"><path d="M 1,1 l 9,9 M 10,1 l -9,9" class="arrowMarkerPath" style="stroke-width: 2; stroke-dasharray: 1, 0;"></path></marker><marker id="container_flowchart-v2-crossStart" class="marker cross flowchart-v2" viewBox="0 0 11 11" refX="-1" refY="5.2" markerUnits="userSpaceOnUse" markerWidth="11" markerHeight="11" orient="auto"><path d="M 1,1 l 9,9 M 10,1 l -9,9" class="arrowMarkerPath" style="stroke-width: 2; stroke-dasharray: 1, 0;"></path></marker><g class="root"><g class="clusters"></g><g class="edgePaths"><path d="M687.938,47.5L687.854,51.583C687.771,55.667,687.604,63.833,687.521,71.417C687.438,79,687.438,86,687.438,89.5L687.438,93" id="L_Req_Mw_0" class="edge-thickness-normal edge-pattern-solid edge-thickness-normal edge-pattern-solid flowchart-link" style=";" data-edge="true" data-et="edge" data-id="L_Req_Mw_0" data-points="W3sieCI6Njg3LjkzNzUsInkiOjQ3LjUwMDAwMDAwMDAwMDAzNn0seyJ4Ijo2ODcuNDM3NSwieSI6NzJ9LHsieCI6Njg3LjQzNzUsInkiOjk3fV0=" marker-end="url(#container_flowchart-v2-pointEnd)"></path><path d="M687.438,175L687.438,181.167C687.438,187.333,687.438,199.667,687.438,211.333C687.438,223,687.438,234,687.438,239.5L687.438,245" id="L_Mw_SB_0" class="edge-thickness-normal edge-pattern-solid edge-thickness-normal edge-pattern-solid flowchart-link" style=";" data-edge="true" data-et="edge" data-id="L_Mw_SB_0" data-points="W3sieCI6Njg3LjQzNzUsInkiOjE3NX0seyJ4Ijo2ODcuNDM3NSwieSI6MjEyfSx7IngiOjY4Ny40Mzc1LCJ5IjoyNDl9XQ==" marker-end="url(#container_flowchart-v2-pointEnd)"></path><path d="M687.438,303L687.438,309.167C687.438,315.333,687.438,327.667,687.438,339.333C687.438,351,687.438,362,687.438,367.5L687.438,373" id="L_SB_Decide_0" class="edge-thickness-normal edge-pattern-solid edge-thickness-normal edge-pattern-solid flowchart-link" style=";" data-edge="true" data-et="edge" data-id="L_SB_Decide_0" data-points="W3sieCI6Njg3LjQzNzUsInkiOjMwM30seyJ4Ijo2ODcuNDM3NSwieSI6MzQwfSx7IngiOjY4Ny40Mzc1LCJ5IjozNzd9XQ==" marker-end="url(#container_flowchart-v2-pointEnd)"></path><path d="M632.853,464.775L569.488,484.039C506.123,503.303,379.394,541.831,316.029,570.595C252.664,599.359,252.664,618.359,252.664,627.859L252.664,637.359" id="L_Decide_Prot_0" class="edge-thickness-normal edge-pattern-solid edge-thickness-normal edge-pattern-solid flowchart-link" style=";" data-edge="true" data-et="edge" data-id="L_Decide_Prot_0" data-points="W3sieCI6NjMyLjg1MjY3NDQ2NTE3MTUsInkiOjQ2NC43NzQ1NDk0NjUxNzE1Nn0seyJ4IjoyNTIuNjY0MDYyNSwieSI6NTgwLjM1OTM3NX0seyJ4IjoyNTIuNjY0MDYyNSwieSI6NjQxLjM1OTM3NX1d" marker-end="url(#container_flowchart-v2-pointEnd)"></path><path d="M687.438,519.359L687.438,529.526C687.438,539.693,687.438,560.026,687.438,579.693C687.438,599.359,687.438,618.359,687.438,627.859L687.438,637.359" id="L_Decide_Auth_0" class="edge-thickness-normal edge-pattern-solid edge-thickness-normal edge-pattern-solid flowchart-link" style=";" data-edge="true" data-et="edge" data-id="L_Decide_Auth_0" data-points="W3sieCI6Njg3LjQzNzUsInkiOjUxOS4zNTkzNzV9LHsieCI6Njg3LjQzNzUsInkiOjU4MC4zNTkzNzV9LHsieCI6Njg3LjQzNzUsInkiOjY0MS4zNTkzNzV9XQ==" marker-end="url(#container_flowchart-v2-pointEnd)"></path><path d="M730.3,476.497L756.501,493.808C782.702,511.118,835.105,545.739,861.306,572.549C887.508,599.359,887.508,618.359,887.508,627.859L887.508,637.359" id="L_Decide_Pass_0" class="edge-thickness-normal edge-pattern-solid edge-thickness-normal edge-pattern-solid flowchart-link" style=";" data-edge="true" data-et="edge" data-id="L_Decide_Pass_0" data-points="W3sieCI6NzMwLjI5OTYyODg4NDIwNTcsInkiOjQ3Ni40OTcyNDYxMTU3OTQzfSx7IngiOjg4Ny41MDc4MTI1LCJ5Ijo1ODAuMzU5Mzc1fSx7IngiOjg4Ny41MDc4MTI1LCJ5Ijo2NDEuMzU5Mzc1fV0=" marker-end="url(#container_flowchart-v2-pointEnd)"></path><path d="M204.29,695.359L193.242,701.526C182.193,707.693,160.097,720.026,149.048,731.693C138,743.359,138,754.359,138,759.859L138,765.359" id="L_Prot_Login_0" class="edge-thickness-normal edge-pattern-solid edge-thickness-normal edge-pattern-solid flowchart-link" style=";" data-edge="true" data-et="edge" data-id="L_Prot_Login_0" data-points="W3sieCI6MjA0LjI5MDE2MTEzMjgxMjUsInkiOjY5NS4zNTkzNzV9LHsieCI6MTM4LCJ5Ijo3MzIuMzU5Mzc1fSx7IngiOjEzOCwieSI6NzY5LjM1OTM3NX1d" marker-end="url(#container_flowchart-v2-pointEnd)"></path><path d="M301.038,695.359L312.086,701.526C323.135,707.693,345.231,720.026,356.28,733.693C367.328,747.359,367.328,762.359,367.328,769.859L367.328,777.359" id="L_Prot_Allow_0" class="edge-thickness-normal edge-pattern-solid edge-thickness-normal edge-pattern-solid flowchart-link" style=";" data-edge="true" data-et="edge" data-id="L_Prot_Allow_0" data-points="W3sieCI6MzAxLjAzNzk2Mzg2NzE4NzUsInkiOjY5NS4zNTkzNzV9LHsieCI6MzY3LjMyODEyNSwieSI6NzMyLjM1OTM3NX0seyJ4IjozNjcuMzI4MTI1LCJ5Ijo3ODEuMzU5Mzc1fV0=" marker-end="url(#container_flowchart-v2-pointEnd)"></path><path d="M642.422,695.359L632.141,701.526C621.86,707.693,601.297,720.026,591.016,733.693C580.734,747.359,580.734,762.359,580.734,769.859L580.734,777.359" id="L_Auth_Dash_0" class="edge-thickness-normal edge-pattern-solid edge-thickness-normal edge-pattern-solid flowchart-link" style=";" data-edge="true" data-et="edge" data-id="L_Auth_Dash_0" data-points="W3sieCI6NjQyLjQyMjExOTE0MDYyNSwieSI6Njk1LjM1OTM3NX0seyJ4Ijo1ODAuNzM0Mzc1LCJ5Ijo3MzIuMzU5Mzc1fSx7IngiOjU4MC43MzQzNzUsInkiOjc4MS4zNTkzNzV9XQ==" marker-end="url(#container_flowchart-v2-pointEnd)"></path><path d="M732.453,695.359L742.734,701.526C753.015,707.693,773.578,720.026,783.859,733.693C794.141,747.359,794.141,762.359,794.141,769.859L794.141,777.359" id="L_Auth_Allow2_0" class="edge-thickness-normal edge-pattern-solid edge-thickness-normal edge-pattern-solid flowchart-link" style=";" data-edge="true" data-et="edge" data-id="L_Auth_Allow2_0" data-points="W3sieCI6NzMyLjQ1Mjg4MDg1OTM3NSwieSI6Njk1LjM1OTM3NX0seyJ4Ijo3OTQuMTQwNjI1LCJ5Ijo3MzIuMzU5Mzc1fSx7IngiOjc5NC4xNDA2MjUsInkiOjc4MS4zNTkzNzV9XQ==" marker-end="url(#container_flowchart-v2-pointEnd)"></path></g><g class="edgeLabels"><g class="edgeLabel"><g class="label" data-id="L_Req_Mw_0" transform="translate(0, 0)"><foreignObject width="0" height="0"><div xmlns="http://www.w3.org/1999/xhtml" class="labelBkg" style="display: table-cell; white-space: nowrap; line-height: 1.5; max-width: 200px; text-align: center;"><span class="edgeLabel"></span></div></foreignObject></g></g><g class="edgeLabel" transform="translate(687.4375, 212)"><g class="label" data-id="L_Mw_SB_0" transform="translate(-45.84375, -12)"><foreignObject width="91.6875" height="24"><div xmlns="http://www.w3.org/1999/xhtml" class="labelBkg" style="display: table-cell; white-space: nowrap; line-height: 1.5; max-width: 200px; text-align: center;"><span class="edgeLabel"><p>read cookies</p></span></div></foreignObject></g></g><g class="edgeLabel" transform="translate(687.4375, 340)"><g class="label" data-id="L_SB_Decide_0" transform="translate(-41.875, -12)"><foreignObject width="83.75" height="24"><div xmlns="http://www.w3.org/1999/xhtml" class="labelBkg" style="display: table-cell; white-space: nowrap; line-height: 1.5; max-width: 200px; text-align: center;"><span class="edgeLabel"><p>user or null</p></span></div></foreignObject></g></g><g class="edgeLabel" transform="translate(252.6640625, 580.359375)"><g class="label" data-id="L_Decide_Prot_0" transform="translate(-82.140625, -36)"><foreignObject width="164.28125" height="72"><div xmlns="http://www.w3.org/1999/xhtml" class="labelBkg" style="display: table-cell; white-space: nowrap; line-height: 1.5; max-width: 200px; text-align: center;"><span class="edgeLabel"><p>/dashboard, /pipeline,<br/>/leads, /follow-ups,<br/>/settings, /api/leads</p></span></div></foreignObject></g></g><g class="edgeLabel" transform="translate(687.4375, 580.359375)"><g class="label" data-id="L_Decide_Auth_0" transform="translate(-54.453125, -12)"><foreignObject width="108.90625" height="24"><div xmlns="http://www.w3.org/1999/xhtml" class="labelBkg" style="display: table-cell; white-space: nowrap; line-height: 1.5; max-width: 200px; text-align: center;"><span class="edgeLabel"><p>/login, /signup</p></span></div></foreignObject></g></g><g class="edgeLabel" transform="translate(887.5078125, 580.359375)"><g class="label" data-id="L_Decide_Pass_0" transform="translate(-19.703125, -12)"><foreignObject width="39.40625" height="24"><div xmlns="http://www.w3.org/1999/xhtml" class="labelBkg" style="display: table-cell; white-space: nowrap; line-height: 1.5; max-width: 200px; text-align: center;"><span class="edgeLabel"><p>other</p></span></div></foreignObject></g></g><g class="edgeLabel" transform="translate(138, 732.359375)"><g class="label" data-id="L_Prot_Login_0" transform="translate(-27.3203125, -12)"><foreignObject width="54.640625" height="24"><div xmlns="http://www.w3.org/1999/xhtml" class="labelBkg" style="display: table-cell; white-space: nowrap; line-height: 1.5; max-width: 200px; text-align: center;"><span class="edgeLabel"><p>no user</p></span></div></foreignObject></g></g><g class="edgeLabel" transform="translate(367.328125, 732.359375)"><g class="label" data-id="L_Prot_Allow_0" transform="translate(-30.65625, -12)"><foreignObject width="61.3125" height="24"><div xmlns="http://www.w3.org/1999/xhtml" class="labelBkg" style="display: table-cell; white-space: nowrap; line-height: 1.5; max-width: 200px; text-align: center;"><span class="edgeLabel"><p>has user</p></span></div></foreignObject></g></g><g class="edgeLabel" transform="translate(580.734375, 732.359375)"><g class="label" data-id="L_Auth_Dash_0" transform="translate(-30.65625, -12)"><foreignObject width="61.3125" height="24"><div xmlns="http://www.w3.org/1999/xhtml" class="labelBkg" style="display: table-cell; white-space: nowrap; line-height: 1.5; max-width: 200px; text-align: center;"><span class="edgeLabel"><p>has user</p></span></div></foreignObject></g></g><g class="edgeLabel" transform="translate(794.140625, 732.359375)"><g class="label" data-id="L_Auth_Allow2_0" transform="translate(-27.3203125, -12)"><foreignObject width="54.640625" height="24"><div xmlns="http://www.w3.org/1999/xhtml" class="labelBkg" style="display: table-cell; white-space: nowrap; line-height: 1.5; max-width: 200px; text-align: center;"><span class="edgeLabel"><p>no user</p></span></div></foreignObject></g></g></g><g class="nodes"><g class="node default" id="flowchart-Req-0" transform="translate(687.4375, 27.5)"><g class="basic label-container outer-path"><path d="M-55.9765625 -19.5 C-30.54529552480652 -19.5, -5.114028549613039 -19.5, 55.9765625 -19.5 C55.9765625 -19.5, 55.9765625 -19.5, 55.9765625 -19.5 C56.43190721641583 -19.48539798121927, 56.88725193283167 -19.470795962438537, 57.2259317896239 -19.45993515863156 C57.711930178243826 -19.413051478579973, 58.19792856686375 -19.366167798528384, 58.470167152847864 -19.3399052695533 C58.928809528065166 -19.26575552715291, 59.38745190328246 -19.191605784752518, 59.70415575967676 -19.140403561325776 C60.115971213799604 -19.04640937126922, 60.52778666792245 -18.952415181212665, 60.92282688623539 -18.862249829261074 C61.18337200486715 -18.784921405680404, 61.44391712349891 -18.707592982099733, 62.121172751460605 -18.50658706670804 C62.41250499688332 -18.399374107346727, 62.70383724230603 -18.29216114798541, 63.2942690951478 -18.074876768247425 C63.568466422652904 -17.95349774513564, 63.84266375015802 -17.832118722023854, 64.43729541279238 -17.568892924097174 C64.88007227651835 -17.337896517903452, 65.32284914024432 -17.106900111709734, 65.54555476407678 -16.990714730406097 C65.96247804475509 -16.737973387545754, 66.37940132543339 -16.48523204468541, 66.6144930736057 -16.342718045390892 C66.94830696241135 -16.109863927130416, 67.282120851217 -15.877009808869941, 67.63971784457871 -15.627565626425154 C67.9602632955636 -15.371939159337392, 68.2808087465485 -15.116312692249632, 68.61701620850187 -14.848196188198123 C68.8879531934167 -14.602138387098256, 69.15889017833156 -14.356080585998388, 69.54237223676799 -14.007812326905688 C69.73833039361416 -13.80546944149813, 69.93428855046034 -13.603126556090569, 70.41198344296865 -13.10986736009568 C70.64743133473883 -12.833296869057852, 70.882879226509 -12.556726378020024, 71.22227640812658 -12.158051136245305 C71.42798971994465 -11.88241403927734, 71.6337030317627 -11.606776942309372, 71.96992146464063 -11.156274872382312 C72.1651170115722 -10.856402094951937, 72.3603125585038 -10.556529317521562, 72.65184637860425 -10.108655082055241 C72.84864197946291 -9.759224565015222, 73.04543758032156 -9.409794047975202, 73.2652489742735 -9.019496659696287 C73.44679533131041 -8.64251176483938, 73.62834168834732 -8.265526869982473, 73.80760864880834 -7.893275190886684 C73.94533951493175 -7.553077288716735, 74.08307038105515 -7.212879386546786, 74.27669672997033 -6.734618561215508 C74.38723984053125 -6.40168032485883, 74.49778295109218 -6.0687420885021535, 74.67058563421489 -5.548287939305138 C74.78538415787531 -5.110511414593018, 74.90018268153575 -4.672734889880899, 74.98765678754556 -4.339158212148133 C75.05426125843368 -3.997158330997534, 75.1208657293218 -3.6551584498469345, 75.22660727658177 -3.1121979531509023 C75.26367327106004 -2.8247214194860053, 75.3007392655383 -2.537244885821108, 75.38645520250937 -1.872449005199798 C75.41545331693153 -1.4207799662178353, 75.44445143135371 -0.9691109272358728, 75.46654371591342 -0.6250057626472757 C75.46654371591342 -0.1913953027514151, 75.46654371591342 0.24221515714444553, 75.46654371591342 0.625005762647271 C75.44323397581381 0.9880737799821939, 75.4199242357142 1.351141797317117, 75.38645520250937 1.8724490051997846 C75.34236763979412 2.214383435545236, 75.29828007707887 2.556317865890688, 75.22660727658177 3.1121979531508885 C75.17722384632802 3.365771430312265, 75.12784041607425 3.619344907473642, 74.98765678754556 4.339158212148129 C74.87298417368882 4.776454588209095, 74.7583115598321 5.213750964270061, 74.67058563421489 5.548287939305125 C74.56128815141487 5.877474543309761, 74.45199066861487 6.2066611473143976, 74.27669672997033 6.734618561215495 C74.18158126942015 6.969555587706757, 74.08646580886997 7.204492614198019, 73.80760864880834 7.893275190886679 C73.66708859487342 8.185068089530029, 73.52656854093851 8.47686098817338, 73.2652489742735 9.019496659696284 C73.11945013033647 9.278377270840352, 72.97365128639944 9.53725788198442, 72.65184637860425 10.108655082055236 C72.44482449492396 10.426696288547697, 72.23780261124368 10.744737495040157, 71.96992146464065 11.156274872382301 C71.7702185905209 11.42385853039667, 71.57051571640113 11.69144218841104, 71.22227640812659 12.158051136245302 C71.05923396662322 12.349570065412898, 70.89619152511985 12.541088994580495, 70.41198344296866 13.10986736009567 C70.15018169647736 13.380199157671063, 69.88837994998606 13.650530955246458, 69.54237223676799 14.007812326905684 C69.31771114639935 14.211843584971769, 69.0930500560307 14.415874843037853, 68.6170162085019 14.848196188198111 C68.23165293658137 15.155513142607381, 67.84628966466084 15.462830097016651, 67.63971784457871 15.627565626425152 C67.30817911237986 15.85883269392667, 66.97664038018101 16.09009976142819, 66.6144930736057 16.34271804539089 C66.35842459305472 16.497948263126318, 66.10235611250374 16.653178480861747, 65.54555476407678 16.990714730406093 C65.23591383676974 17.152254203847697, 64.9262729094627 17.3137936772893, 64.43729541279238 17.56889292409717 C64.18431846499178 17.680878314593972, 63.93134151719117 17.79286370509077, 63.294269095147804 18.07487676824742 C62.94367290444408 18.203899407302053, 62.59307671374035 18.332922046356682, 62.12117275146062 18.506587066708033 C61.64897021496889 18.646734300897084, 61.17676767847717 18.786881535086135, 60.92282688623541 18.86224982926107 C60.52526002018215 18.95299187207147, 60.12769315412889 19.04373391488187, 59.704155759676766 19.140403561325773 C59.356701809645024 19.19657722142128, 59.009247859613275 19.25275088151679, 58.47016715284788 19.3399052695533 C58.044617135840696 19.38095756789521, 57.61906711883351 19.422009866237115, 57.2259317896239 19.45993515863156 C56.9703217437696 19.468132075287336, 56.714711697915305 19.47632899194311, 55.97656250000001 19.5 C55.97656250000001 19.5, 55.97656250000001 19.5, 55.9765625 19.5 C26.827801555965177 19.5, -2.320959388069646 19.5, -55.97656249999999 19.5 C-56.35490710253002 19.487867224999956, -56.733251705060056 19.475734449999912, -57.22593178962389 19.45993515863156 C-57.545852881475696 19.42907275566202, -57.8657739733275 19.398210352692484, -58.47016715284787 19.3399052695533 C-58.742501493003395 19.295876365421304, -59.01483583315892 19.25184746128931, -59.70415575967676 19.140403561325773 C-59.948940666173655 19.084533003788653, -60.19372557267055 19.028662446251534, -60.922826886235384 18.862249829261074 C-61.206202360594254 18.77814547593958, -61.489577834953124 18.69404112261809, -62.12117275146059 18.506587066708043 C-62.450893976737596 18.385246607896512, -62.7806152020146 18.263906149084978, -63.2942690951478 18.074876768247425 C-63.63493913490004 17.924072247266782, -63.975609174652284 17.77326772628614, -64.43729541279238 17.568892924097174 C-64.6810956893165 17.441702475996063, -64.92489596584065 17.314512027894956, -65.54555476407678 16.990714730406097 C-65.87263522870032 16.792436630613146, -66.19971569332385 16.594158530820195, -66.61449307360569 16.3427180453909 C-66.95174149909376 16.107468143019467, -67.28898992458181 15.872218240648033, -67.63971784457871 15.627565626425156 C-67.97690651840033 15.35866663201987, -68.31409519222193 15.089767637614587, -68.61701620850187 14.848196188198125 C-68.88045121220675 14.6089514879416, -69.14388621591164 14.369706787685075, -69.54237223676797 14.007812326905697 C-69.86381947739584 13.675891659648162, -70.1852667180237 13.343970992390627, -70.41198344296865 13.109867360095677 C-70.63156136000866 12.851938644403047, -70.85113927704867 12.594009928710417, -71.22227640812658 12.158051136245307 C-71.47090328799695 11.824913767593722, -71.71953016786733 11.49177639894214, -71.96992146464063 11.156274872382316 C-72.23247389362999 10.752923836255839, -72.49502632261932 10.34957280012936, -72.65184637860425 10.108655082055249 C-72.89634108959301 9.674529964920573, -73.14083580058177 9.240404847785898, -73.2652489742735 9.019496659696289 C-73.38070796145729 8.779743602382572, -73.49616694864109 8.539990545068854, -73.80760864880834 7.893275190886686 C-73.90784242800295 7.645695818387717, -74.00807620719756 7.398116445888746, -74.27669672997033 6.73461856121551 C-74.36801440297153 6.459584279631228, -74.45933207597272 6.184549998046947, -74.67058563421489 5.5482879393051325 C-74.79460750557669 5.075338792383504, -74.9186293769385 4.602389645461876, -74.98765678754556 4.339158212148136 C-75.0394937482192 4.072986374834525, -75.09133070889284 3.806814537520914, -75.22660727658177 3.112197953150904 C-75.2857630698596 2.653397302120749, -75.34491886313744 2.194596651090593, -75.38645520250937 1.872449005199809 C-75.40826226711926 1.5327863715550567, -75.43006933172914 1.1931237379103043, -75.46654371591342 0.6250057626472781 C-75.46654371591342 0.3109803097868386, -75.46654371591342 -0.003045143073600931, -75.46654371591342 -0.6250057626472687 C-75.43810507185535 -1.0679605991120422, -75.40966642779728 -1.5109154355768157, -75.38645520250937 -1.8724490051997822 C-75.33200129951345 -2.29478272369671, -75.27754739651753 -2.717116442193638, -75.22660727658177 -3.112197953150895 C-75.14775863479505 -3.517069064059361, -75.06890999300833 -3.9219401749678267, -74.98765678754556 -4.339158212148126 C-74.92268794376821 -4.586912571146157, -74.85771909999087 -4.834666930144187, -74.67058563421489 -5.548287939305123 C-74.52197254723477 -5.9958868790093875, -74.37335946025465 -6.4434858187136514, -74.27669672997033 -6.734618561215485 C-74.12607835186714 -7.106648867138591, -73.97545997376396 -7.478679173061696, -73.80760864880834 -7.893275190886676 C-73.6631182311824 -8.193312634686627, -73.51862781355645 -8.49335007848658, -73.2652489742735 -9.019496659696282 C-73.0981651510753 -9.316170906856415, -72.93108132787711 -9.612845154016549, -72.65184637860425 -10.108655082055243 C-72.4086399138374 -10.482285522017172, -72.16543344907056 -10.8559159619791, -71.96992146464063 -11.156274872382308 C-71.73922963475812 -11.465380907966825, -71.50853780487562 -11.774486943551342, -71.22227640812659 -12.158051136245302 C-70.99528053568744 -12.424693404443367, -70.76828466324831 -12.691335672641431, -70.41198344296866 -13.10986736009567 C-70.09688471138152 -13.435232670546375, -69.78178597979438 -13.76059798099708, -69.54237223676799 -14.007812326905677 C-69.28819780494436 -14.238646820800962, -69.03402337312072 -14.469481314696248, -68.6170162085019 -14.848196188198107 C-68.26151375314755 -15.13169993602554, -67.90601129779323 -15.415203683852976, -67.63971784457871 -15.627565626425149 C-67.28948786794773 -15.871870896911595, -66.93925789131674 -16.11617616739804, -66.61449307360571 -16.342718045390885 C-66.35409465862023 -16.500573094826034, -66.09369624363472 -16.658428144261183, -65.54555476407678 -16.99071473040609 C-65.16261956134404 -17.190491780390058, -64.7796843586113 -17.39026883037403, -64.4372954127924 -17.56889292409717 C-63.99882020971265 -17.76299288959581, -63.5603450066329 -17.957092855094448, -63.294269095147804 -18.07487676824742 C-63.00488300832039 -18.181373523255573, -62.71549692149297 -18.287870278263725, -62.12117275146062 -18.506587066708033 C-61.68439162892532 -18.63622141116561, -61.24761050639002 -18.76585575562319, -60.92282688623541 -18.862249829261067 C-60.489000397333164 -18.961267894370597, -60.05517390843091 -19.06028595948013, -59.704155759676766 -19.140403561325773 C-59.33021093710014 -19.200860060254552, -58.956266114523515 -19.26131655918333, -58.47016715284788 -19.3399052695533 C-58.0004025758915 -19.385222893317717, -57.53063799893512 -19.43054051708214, -57.2259317896239 -19.45993515863156 C-56.784311919858226 -19.474097048294013, -56.34269205009255 -19.48825893795647, -55.97656250000001 -19.5 C-55.97656250000001 -19.5, -55.9765625 -19.5, -55.9765625 -19.5" stroke="none" stroke-width="0" fill="#ECECFF" style=""></path><path d="M-55.9765625 -19.5 C-20.713090181386583 -19.5, 14.550382137226833 -19.5, 55.9765625 -19.5 M-55.9765625 -19.5 C-33.10979448658229 -19.5, -10.243026473164576 -19.5, 55.9765625 -19.5 M55.9765625 -19.5 C55.9765625 -19.5, 55.9765625 -19.5, 55.9765625 -19.5 M55.9765625 -19.5 C55.9765625 -19.5, 55.9765625 -19.5, 55.9765625 -19.5 M55.9765625 -19.5 C56.28819156144386 -19.490006662548666, 56.59982062288772 -19.48001332509733, 57.2259317896239 -19.45993515863156 M55.9765625 -19.5 C56.38552769790623 -19.486885282105614, 56.79449289581245 -19.47377056421123, 57.2259317896239 -19.45993515863156 M57.2259317896239 -19.45993515863156 C57.60751535770783 -19.423124250739885, 57.989098925791765 -19.38631334284821, 58.470167152847864 -19.3399052695533 M57.2259317896239 -19.45993515863156 C57.677765441585635 -19.41634730963628, 58.12959909354738 -19.372759460641, 58.470167152847864 -19.3399052695533 M58.470167152847864 -19.3399052695533 C58.734719491525745 -19.297134499069887, 58.99927183020362 -19.254363728586476, 59.70415575967676 -19.140403561325776 M58.470167152847864 -19.3399052695533 C58.84870030618815 -19.27870696488969, 59.22723345952843 -19.21750866022608, 59.70415575967676 -19.140403561325776 M59.70415575967676 -19.140403561325776 C60.045489393031886 -19.06249638692259, 60.38682302638701 -18.9845892125194, 60.92282688623539 -18.862249829261074 M59.70415575967676 -19.140403561325776 C60.15554559354535 -19.037376777339215, 60.60693542741393 -18.934349993352658, 60.92282688623539 -18.862249829261074 M60.92282688623539 -18.862249829261074 C61.296754045335966 -18.751270211223733, 61.67068120443655 -18.640290593186396, 62.121172751460605 -18.50658706670804 M60.92282688623539 -18.862249829261074 C61.243183687069994 -18.767169612360526, 61.563540487904596 -18.67208939545998, 62.121172751460605 -18.50658706670804 M62.121172751460605 -18.50658706670804 C62.357623112481534 -18.41957114812916, 62.59407347350247 -18.33255522955028, 63.2942690951478 -18.074876768247425 M62.121172751460605 -18.50658706670804 C62.487425508231695 -18.371802666612908, 62.85367826500279 -18.237018266517776, 63.2942690951478 -18.074876768247425 M63.2942690951478 -18.074876768247425 C63.691182406241246 -17.899175019441397, 64.0880957173347 -17.723473270635367, 64.43729541279238 -17.568892924097174 M63.2942690951478 -18.074876768247425 C63.73812695826942 -17.878394058819183, 64.18198482139104 -17.681911349390937, 64.43729541279238 -17.568892924097174 M64.43729541279238 -17.568892924097174 C64.78256303027081 -17.38876702921314, 65.12783064774924 -17.208641134329113, 65.54555476407678 -16.990714730406097 M64.43729541279238 -17.568892924097174 C64.71942597129336 -17.42170559244046, 65.00155652979434 -17.274518260783747, 65.54555476407678 -16.990714730406097 M65.54555476407678 -16.990714730406097 C65.92455563047153 -16.760962177941284, 66.30355649686629 -16.531209625476475, 66.6144930736057 -16.342718045390892 M65.54555476407678 -16.990714730406097 C65.76094582063352 -16.860143406143056, 65.97633687719025 -16.729572081880015, 66.6144930736057 -16.342718045390892 M66.6144930736057 -16.342718045390892 C66.960380350915 -16.10144205395883, 67.3062676282243 -15.860166062526769, 67.63971784457871 -15.627565626425154 M66.6144930736057 -16.342718045390892 C67.00156902443221 -16.072710618342168, 67.38864497525871 -15.802703191293444, 67.63971784457871 -15.627565626425154 M67.63971784457871 -15.627565626425154 C67.98641368791627 -15.35108491732731, 68.33310953125383 -15.074604208229465, 68.61701620850187 -14.848196188198123 M67.63971784457871 -15.627565626425154 C67.97630575395364 -15.359145725679088, 68.31289366332857 -15.09072582493302, 68.61701620850187 -14.848196188198123 M68.61701620850187 -14.848196188198123 C68.95204703108949 -14.54393005955385, 69.28707785367713 -14.239663930909575, 69.54237223676799 -14.007812326905688 M68.61701620850187 -14.848196188198123 C68.91553743490215 -14.577087108820212, 69.21405866130245 -14.305978029442302, 69.54237223676799 -14.007812326905688 M69.54237223676799 -14.007812326905688 C69.74458545617875 -13.799010575850009, 69.9467986755895 -13.590208824794328, 70.41198344296865 -13.10986736009568 M69.54237223676799 -14.007812326905688 C69.85266300771767 -13.68741163055408, 70.16295377866733 -13.367010934202469, 70.41198344296865 -13.10986736009568 M70.41198344296865 -13.10986736009568 C70.70537254516042 -12.765235826348391, 70.99876164735217 -12.420604292601102, 71.22227640812658 -12.158051136245305 M70.41198344296865 -13.10986736009568 C70.64528892209528 -12.835813468855704, 70.8785944012219 -12.561759577615728, 71.22227640812658 -12.158051136245305 M71.22227640812658 -12.158051136245305 C71.38337004189869 -11.942200342922618, 71.54446367567081 -11.726349549599929, 71.96992146464063 -11.156274872382312 M71.22227640812658 -12.158051136245305 C71.50524489072392 -11.778899148523957, 71.78821337332126 -11.399747160802608, 71.96992146464063 -11.156274872382312 M71.96992146464063 -11.156274872382312 C72.20140100105888 -10.800660143484992, 72.43288053747715 -10.44504541458767, 72.65184637860425 -10.108655082055241 M71.96992146464063 -11.156274872382312 C72.18001308346082 -10.833517728375666, 72.390104702281 -10.510760584369022, 72.65184637860425 -10.108655082055241 M72.65184637860425 -10.108655082055241 C72.815108214684 -9.81876716004206, 72.97837005076376 -9.528879238028878, 73.2652489742735 -9.019496659696287 M72.65184637860425 -10.108655082055241 C72.77548826976098 -9.88911638420735, 72.89913016091771 -9.66957768635946, 73.2652489742735 -9.019496659696287 M73.2652489742735 -9.019496659696287 C73.45347733176929 -8.62863644791462, 73.64170568926508 -8.237776236132952, 73.80760864880834 -7.893275190886684 M73.2652489742735 -9.019496659696287 C73.37838834378324 -8.784560338114623, 73.49152771329297 -8.549624016532961, 73.80760864880834 -7.893275190886684 M73.80760864880834 -7.893275190886684 C73.9780601933697 -7.472256580363697, 74.14851173793106 -7.0512379698407095, 74.27669672997033 -6.734618561215508 M73.80760864880834 -7.893275190886684 C73.93735076540283 -7.572809654505127, 74.06709288199731 -7.252344118123569, 74.27669672997033 -6.734618561215508 M74.27669672997033 -6.734618561215508 C74.42367946204406 -6.291929990727485, 74.5706621941178 -5.84924142023946, 74.67058563421489 -5.548287939305138 M74.27669672997033 -6.734618561215508 C74.39064332408712 -6.391429574660019, 74.5045899182039 -6.048240588104529, 74.67058563421489 -5.548287939305138 M74.67058563421489 -5.548287939305138 C74.76844961126938 -5.175090180280432, 74.86631358832385 -4.801892421255727, 74.98765678754556 -4.339158212148133 M74.67058563421489 -5.548287939305138 C74.73824677721682 -5.290266676513931, 74.80590792021873 -5.032245413722725, 74.98765678754556 -4.339158212148133 M74.98765678754556 -4.339158212148133 C75.04917525431495 -4.023273887219881, 75.11069372108433 -3.7073895622916284, 75.22660727658177 -3.1121979531509023 M74.98765678754556 -4.339158212148133 C75.04139662980748 -4.063215480052891, 75.09513647206938 -3.78727274795765, 75.22660727658177 -3.1121979531509023 M75.22660727658177 -3.1121979531509023 C75.25865515476328 -2.863640938544489, 75.29070303294479 -2.615083923938076, 75.38645520250937 -1.872449005199798 M75.22660727658177 -3.1121979531509023 C75.28047911166752 -2.694378638422946, 75.33435094675328 -2.2765593236949893, 75.38645520250937 -1.872449005199798 M75.38645520250937 -1.872449005199798 C75.41139484092766 -1.4839940059211543, 75.43633447934594 -1.0955390066425106, 75.46654371591342 -0.6250057626472757 M75.38645520250937 -1.872449005199798 C75.40801638261006 -1.5366162212602872, 75.42957756271073 -1.2007834373207764, 75.46654371591342 -0.6250057626472757 M75.46654371591342 -0.6250057626472757 C75.46654371591342 -0.16934260103035786, 75.46654371591342 0.28632056058655997, 75.46654371591342 0.625005762647271 M75.46654371591342 -0.6250057626472757 C75.46654371591342 -0.3507851059953019, 75.46654371591342 -0.07656444934332807, 75.46654371591342 0.625005762647271 M75.46654371591342 0.625005762647271 C75.44414256073046 0.9739218365089424, 75.4217414055475 1.3228379103706136, 75.38645520250937 1.8724490051997846 M75.46654371591342 0.625005762647271 C75.44843063900007 0.9071315561852318, 75.43031756208671 1.1892573497231926, 75.38645520250937 1.8724490051997846 M75.38645520250937 1.8724490051997846 C75.34632333182977 2.183703869256556, 75.30619146115016 2.494958733313327, 75.22660727658177 3.1121979531508885 M75.38645520250937 1.8724490051997846 C75.3480428040212 2.170367982487911, 75.30963040553304 2.468286959776038, 75.22660727658177 3.1121979531508885 M75.22660727658177 3.1121979531508885 C75.14539991540492 3.529180589612172, 75.06419255422807 3.946163226073456, 74.98765678754556 4.339158212148129 M75.22660727658177 3.1121979531508885 C75.14656704061623 3.52318764832411, 75.06652680465068 3.934177343497331, 74.98765678754556 4.339158212148129 M74.98765678754556 4.339158212148129 C74.88468490812336 4.7318346166798415, 74.78171302870115 5.124511021211554, 74.67058563421489 5.548287939305125 M74.98765678754556 4.339158212148129 C74.88281829340302 4.73895282760445, 74.77797979926046 5.138747443060772, 74.67058563421489 5.548287939305125 M74.67058563421489 5.548287939305125 C74.57836825059921 5.826032005910786, 74.48615086698354 6.103776072516447, 74.27669672997033 6.734618561215495 M74.67058563421489 5.548287939305125 C74.54413256339798 5.929144441044887, 74.41767949258109 6.310000942784647, 74.27669672997033 6.734618561215495 M74.27669672997033 6.734618561215495 C74.09943719117102 7.172453049129836, 73.9221776523717 7.6102875370441785, 73.80760864880834 7.893275190886679 M74.27669672997033 6.734618561215495 C74.10087833274585 7.168893401577419, 73.92505993552138 7.603168241939343, 73.80760864880834 7.893275190886679 M73.80760864880834 7.893275190886679 C73.66692824250127 8.185401064661805, 73.5262478361942 8.477526938436931, 73.2652489742735 9.019496659696284 M73.80760864880834 7.893275190886679 C73.66038162203733 8.198995262130413, 73.51315459526631 8.504715333374149, 73.2652489742735 9.019496659696284 M73.2652489742735 9.019496659696284 C73.07264911441486 9.361477213725925, 72.88004925455623 9.703457767755566, 72.65184637860425 10.108655082055236 M73.2652489742735 9.019496659696284 C73.0222820525714 9.450909032247058, 72.77931513086929 9.882321404797834, 72.65184637860425 10.108655082055236 M72.65184637860425 10.108655082055236 C72.46939438848531 10.388950334097254, 72.28694239836636 10.669245586139272, 71.96992146464065 11.156274872382301 M72.65184637860425 10.108655082055236 C72.4154315007366 10.471851820743566, 72.17901662286896 10.835048559431897, 71.96992146464065 11.156274872382301 M71.96992146464065 11.156274872382301 C71.74207255557528 11.461571653067269, 71.51422364650989 11.766868433752238, 71.22227640812659 12.158051136245302 M71.96992146464065 11.156274872382301 C71.7302334018831 11.477435040445702, 71.49054533912553 11.798595208509102, 71.22227640812659 12.158051136245302 M71.22227640812659 12.158051136245302 C71.02277256056033 12.392399707687153, 70.82326871299406 12.626748279129004, 70.41198344296866 13.10986736009567 M71.22227640812659 12.158051136245302 C71.04067065271573 12.37137559021112, 70.85906489730488 12.584700044176937, 70.41198344296866 13.10986736009567 M70.41198344296866 13.10986736009567 C70.1599590444111 13.370103243194293, 69.90793464585352 13.630339126292917, 69.54237223676799 14.007812326905684 M70.41198344296866 13.10986736009567 C70.12444452574593 13.406774899512284, 69.8369056085232 13.703682438928897, 69.54237223676799 14.007812326905684 M69.54237223676799 14.007812326905684 C69.2262616482153 14.29489559960139, 68.91015105966261 14.581978872297096, 68.6170162085019 14.848196188198111 M69.54237223676799 14.007812326905684 C69.18016714992186 14.336757403357904, 68.81796206307573 14.665702479810122, 68.6170162085019 14.848196188198111 M68.6170162085019 14.848196188198111 C68.24954921081296 15.141241340147547, 67.88208221312402 15.434286492096982, 67.63971784457871 15.627565626425152 M68.6170162085019 14.848196188198111 C68.3698586131412 15.045297793358428, 68.12270101778051 15.242399398518742, 67.63971784457871 15.627565626425152 M67.63971784457871 15.627565626425152 C67.28427342480546 15.87550826671803, 66.92882900503223 16.12345090701091, 66.6144930736057 16.34271804539089 M67.63971784457871 15.627565626425152 C67.26345068627818 15.890033307712848, 66.88718352797763 16.152500989000544, 66.6144930736057 16.34271804539089 M66.6144930736057 16.34271804539089 C66.3623008772872 16.49559843684502, 66.11010868096868 16.64847882829915, 65.54555476407678 16.990714730406093 M66.6144930736057 16.34271804539089 C66.38944680203522 16.479142417735606, 66.16440053046473 16.61556679008032, 65.54555476407678 16.990714730406093 M65.54555476407678 16.990714730406093 C65.14681319297438 17.19873795264405, 64.74807162187199 17.406761174882003, 64.43729541279238 17.56889292409717 M65.54555476407678 16.990714730406093 C65.19366860851423 17.17429351236924, 64.84178245295168 17.35787229433238, 64.43729541279238 17.56889292409717 M64.43729541279238 17.56889292409717 C64.1641336966201 17.68981351279223, 63.89097198044782 17.81073410148729, 63.294269095147804 18.07487676824742 M64.43729541279238 17.56889292409717 C64.12230034183119 17.7083318980149, 63.80730527087001 17.84777087193263, 63.294269095147804 18.07487676824742 M63.294269095147804 18.07487676824742 C62.96557407932152 18.19583957249491, 62.63687906349524 18.3168023767424, 62.12117275146062 18.506587066708033 M63.294269095147804 18.07487676824742 C62.89531726979237 18.221694727848465, 62.49636544443695 18.36851268744951, 62.12117275146062 18.506587066708033 M62.12117275146062 18.506587066708033 C61.84974922917954 18.587144143389917, 61.578325706898454 18.6677012200718, 60.92282688623541 18.86224982926107 M62.12117275146062 18.506587066708033 C61.81955617642083 18.59610528296213, 61.517939601381045 18.685623499216234, 60.92282688623541 18.86224982926107 M60.92282688623541 18.86224982926107 C60.48619031361043 18.961909277642803, 60.049553740985445 19.061568726024536, 59.704155759676766 19.140403561325773 M60.92282688623541 18.86224982926107 C60.53260408378824 18.951315637477872, 60.14238128134107 19.040381445694678, 59.704155759676766 19.140403561325773 M59.704155759676766 19.140403561325773 C59.396475044818345 19.190146993204504, 59.088794329959924 19.23989042508323, 58.47016715284788 19.3399052695533 M59.704155759676766 19.140403561325773 C59.43533265128963 19.183864796735463, 59.166509542902496 19.227326032145154, 58.47016715284788 19.3399052695533 M58.47016715284788 19.3399052695533 C58.1582504208406 19.369995501555287, 57.84633368883333 19.400085733557273, 57.2259317896239 19.45993515863156 M58.47016715284788 19.3399052695533 C58.02192687898467 19.38314646968508, 57.573686605121466 19.426387669816865, 57.2259317896239 19.45993515863156 M57.2259317896239 19.45993515863156 C56.75516350279243 19.475031781295364, 56.284395215960956 19.490128403959165, 55.97656250000001 19.5 M57.2259317896239 19.45993515863156 C56.80415444826133 19.473460737029264, 56.382377106898765 19.48698631542697, 55.97656250000001 19.5 M55.97656250000001 19.5 C55.97656250000001 19.5, 55.9765625 19.5, 55.9765625 19.5 M55.97656250000001 19.5 C55.97656250000001 19.5, 55.9765625 19.5, 55.9765625 19.5 M55.9765625 19.5 C11.4561207586678 19.5, -33.0643209826644 19.5, -55.97656249999999 19.5 M55.9765625 19.5 C20.436312201971454 19.5, -15.103938096057092 19.5, -55.97656249999999 19.5 M-55.97656249999999 19.5 C-56.44066195804496 19.48511723369529, -56.904761416089926 19.470234467390586, -57.22593178962389 19.45993515863156 M-55.97656249999999 19.5 C-56.26359660755905 19.490795374848577, -56.55063071511811 19.48159074969716, -57.22593178962389 19.45993515863156 M-57.22593178962389 19.45993515863156 C-57.711509136030216 19.41309209601594, -58.19708648243654 19.366249033400322, -58.47016715284787 19.3399052695533 M-57.22593178962389 19.45993515863156 C-57.49932436482774 19.43356130570432, -57.772716940031586 19.407187452777084, -58.47016715284787 19.3399052695533 M-58.47016715284787 19.3399052695533 C-58.77732544008408 19.29024629972104, -59.08448372732029 19.240587329888786, -59.70415575967676 19.140403561325773 M-58.47016715284787 19.3399052695533 C-58.83028081989892 19.281684884587683, -59.19039448694996 19.223464499622064, -59.70415575967676 19.140403561325773 M-59.70415575967676 19.140403561325773 C-60.082513936191134 19.05404577655421, -60.4608721127055 18.96768799178265, -60.922826886235384 18.862249829261074 M-59.70415575967676 19.140403561325773 C-60.04708798542829 19.062131518639895, -60.390020211179824 18.98385947595402, -60.922826886235384 18.862249829261074 M-60.922826886235384 18.862249829261074 C-61.30210689627329 18.749681513163225, -61.68138690631119 18.637113197065375, -62.12117275146059 18.506587066708043 M-60.922826886235384 18.862249829261074 C-61.35545834166843 18.7338470842174, -61.78808979710147 18.605444339173722, -62.12117275146059 18.506587066708043 M-62.12117275146059 18.506587066708043 C-62.41924506447835 18.39689370016725, -62.717317377496116 18.28720033362646, -63.2942690951478 18.074876768247425 M-62.12117275146059 18.506587066708043 C-62.397214836601236 18.405001027671222, -62.67325692174189 18.3034149886344, -63.2942690951478 18.074876768247425 M-63.2942690951478 18.074876768247425 C-63.695415526109464 17.897301142846775, -64.09656195707113 17.719725517446125, -64.43729541279238 17.568892924097174 M-63.2942690951478 18.074876768247425 C-63.64555970492562 17.919370835964475, -63.996850314703444 17.763864903681522, -64.43729541279238 17.568892924097174 M-64.43729541279238 17.568892924097174 C-64.80082433066707 17.379240120493332, -65.16435324854176 17.189587316889494, -65.54555476407678 16.990714730406097 M-64.43729541279238 17.568892924097174 C-64.66274838307591 17.451274253909776, -64.88820135335943 17.33365558372238, -65.54555476407678 16.990714730406097 M-65.54555476407678 16.990714730406097 C-65.90088134557337 16.775313668572096, -66.25620792706995 16.559912606738095, -66.61449307360569 16.3427180453909 M-65.54555476407678 16.990714730406097 C-65.898047667298 16.77703146099516, -66.25054057051923 16.563348191584225, -66.61449307360569 16.3427180453909 M-66.61449307360569 16.3427180453909 C-66.87144801854635 16.163477399200584, -67.128402963487 15.98423675301027, -67.63971784457871 15.627565626425156 M-66.61449307360569 16.3427180453909 C-66.82620232234474 16.195038838216202, -67.0379115710838 16.047359631041505, -67.63971784457871 15.627565626425156 M-67.63971784457871 15.627565626425156 C-67.97527840356355 15.359965010276238, -68.3108389625484 15.09236439412732, -68.61701620850187 14.848196188198125 M-67.63971784457871 15.627565626425156 C-67.83880222223516 15.46880113310192, -68.03788659989162 15.310036639778682, -68.61701620850187 14.848196188198125 M-68.61701620850187 14.848196188198125 C-68.90090519398467 14.590375722873597, -69.18479417946746 14.33255525754907, -69.54237223676797 14.007812326905697 M-68.61701620850187 14.848196188198125 C-68.8177149496932 14.66592690164586, -69.01841369088453 14.483657615093598, -69.54237223676797 14.007812326905697 M-69.54237223676797 14.007812326905697 C-69.8119615140362 13.729439264434966, -70.08155079130441 13.451066201964235, -70.41198344296865 13.109867360095677 M-69.54237223676797 14.007812326905697 C-69.7966535293461 13.745246015436406, -70.05093482192422 13.482679703967117, -70.41198344296865 13.109867360095677 M-70.41198344296865 13.109867360095677 C-70.73543189828536 12.729926399742176, -71.05888035360208 12.349985439388675, -71.22227640812658 12.158051136245307 M-70.41198344296865 13.109867360095677 C-70.59988164112883 12.889151444826373, -70.787779839289 12.668435529557067, -71.22227640812658 12.158051136245307 M-71.22227640812658 12.158051136245307 C-71.40776569905063 11.909512384829108, -71.59325498997468 11.660973633412912, -71.96992146464063 11.156274872382316 M-71.22227640812658 12.158051136245307 C-71.38487345525837 11.94018590598442, -71.54747050239018 11.722320675723532, -71.96992146464063 11.156274872382316 M-71.96992146464063 11.156274872382316 C-72.1541624501537 10.87323124300238, -72.33840343566679 10.590187613622444, -72.65184637860425 10.108655082055249 M-71.96992146464063 11.156274872382316 C-72.14701552188394 10.884210844043695, -72.32410957912725 10.612146815705076, -72.65184637860425 10.108655082055249 M-72.65184637860425 10.108655082055249 C-72.8931961284282 9.68011416193054, -73.13454587825215 9.251573241805831, -73.2652489742735 9.019496659696289 M-72.65184637860425 10.108655082055249 C-72.78135511363993 9.878699208817912, -72.91086384867562 9.648743335580575, -73.2652489742735 9.019496659696289 M-73.2652489742735 9.019496659696289 C-73.41899094043544 8.700248177409948, -73.57273290659735 8.380999695123606, -73.80760864880834 7.893275190886686 M-73.2652489742735 9.019496659696289 C-73.47382395319984 8.586386253166125, -73.68239893212618 8.153275846635964, -73.80760864880834 7.893275190886686 M-73.80760864880834 7.893275190886686 C-73.95883584920733 7.519741082122143, -74.11006304960634 7.146206973357599, -74.27669672997033 6.73461856121551 M-73.80760864880834 7.893275190886686 C-73.97603191015453 7.477266479119352, -74.14445517150072 7.061257767352019, -74.27669672997033 6.73461856121551 M-74.27669672997033 6.73461856121551 C-74.40190577679594 6.3575088615291895, -74.52711482362156 5.98039916184287, -74.67058563421489 5.5482879393051325 M-74.27669672997033 6.73461856121551 C-74.43350669145099 6.262331941510175, -74.59031665293166 5.790045321804841, -74.67058563421489 5.5482879393051325 M-74.67058563421489 5.5482879393051325 C-74.78475322121854 5.1129174495149945, -74.89892080822219 4.677546959724857, -74.98765678754556 4.339158212148136 M-74.67058563421489 5.5482879393051325 C-74.79408774946508 5.077320847700831, -74.91758986471525 4.606353756096528, -74.98765678754556 4.339158212148136 M-74.98765678754556 4.339158212148136 C-75.05001345430003 4.018969907450133, -75.1123701210545 3.6987816027521303, -75.22660727658177 3.112197953150904 M-74.98765678754556 4.339158212148136 C-75.04691759641895 4.034866483359687, -75.10617840529233 3.7305747545712373, -75.22660727658177 3.112197953150904 M-75.22660727658177 3.112197953150904 C-75.2875318057085 2.639679336153087, -75.34845633483523 2.1671607191552695, -75.38645520250937 1.872449005199809 M-75.22660727658177 3.112197953150904 C-75.28966875150678 2.623105606529309, -75.35273022643179 2.1340132599077135, -75.38645520250937 1.872449005199809 M-75.38645520250937 1.872449005199809 C-75.40559151516224 1.5743854890777202, -75.42472782781512 1.2763219729556314, -75.46654371591342 0.6250057626472781 M-75.38645520250937 1.872449005199809 C-75.41434464888864 1.4380483658865586, -75.44223409526793 1.0036477265733081, -75.46654371591342 0.6250057626472781 M-75.46654371591342 0.6250057626472781 C-75.46654371591342 0.1733269968759537, -75.46654371591342 -0.2783517688953707, -75.46654371591342 -0.6250057626472687 M-75.46654371591342 0.6250057626472781 C-75.46654371591342 0.22081977256889085, -75.46654371591342 -0.18336621750949644, -75.46654371591342 -0.6250057626472687 M-75.46654371591342 -0.6250057626472687 C-75.43845649070697 -1.0624869668377537, -75.41036926550053 -1.4999681710282387, -75.38645520250937 -1.8724490051997822 M-75.46654371591342 -0.6250057626472687 C-75.44938977227157 -0.8921922812830612, -75.43223582862973 -1.1593787999188536, -75.38645520250937 -1.8724490051997822 M-75.38645520250937 -1.8724490051997822 C-75.34085083926352 -2.2261474409344464, -75.29524647601767 -2.579845876669111, -75.22660727658177 -3.112197953150895 M-75.38645520250937 -1.8724490051997822 C-75.33104717116339 -2.3021827547657794, -75.27563913981741 -2.731916504331777, -75.22660727658177 -3.112197953150895 M-75.22660727658177 -3.112197953150895 C-75.17028125061934 -3.401420191958199, -75.1139552246569 -3.690642430765503, -74.98765678754556 -4.339158212148126 M-75.22660727658177 -3.112197953150895 C-75.15413904461279 -3.484307008145348, -75.08167081264382 -3.8564160631398012, -74.98765678754556 -4.339158212148126 M-74.98765678754556 -4.339158212148126 C-74.89512186647943 -4.692033971061767, -74.8025869454133 -5.044909729975409, -74.67058563421489 -5.548287939305123 M-74.98765678754556 -4.339158212148126 C-74.87415032136605 -4.772007561704254, -74.76064385518653 -5.204856911260383, -74.67058563421489 -5.548287939305123 M-74.67058563421489 -5.548287939305123 C-74.58496012640524 -5.806178326255799, -74.4993346185956 -6.064068713206475, -74.27669672997033 -6.734618561215485 M-74.67058563421489 -5.548287939305123 C-74.52039894577717 -6.000626315880319, -74.37021225733946 -6.452964692455515, -74.27669672997033 -6.734618561215485 M-74.27669672997033 -6.734618561215485 C-74.11059692909552 -7.144888280697423, -73.94449712822073 -7.555158000179362, -73.80760864880834 -7.893275190886676 M-74.27669672997033 -6.734618561215485 C-74.17905894788771 -6.975785770657659, -74.08142116580508 -7.2169529800998315, -73.80760864880834 -7.893275190886676 M-73.80760864880834 -7.893275190886676 C-73.62376371748495 -8.275033124431081, -73.43991878616156 -8.656791057975488, -73.2652489742735 -9.019496659696282 M-73.80760864880834 -7.893275190886676 C-73.68717434125917 -8.143359607393915, -73.56674003370999 -8.393444023901155, -73.2652489742735 -9.019496659696282 M-73.2652489742735 -9.019496659696282 C-73.097215666276 -9.31785681326336, -72.92918235827848 -9.616216966830438, -72.65184637860425 -10.108655082055243 M-73.2652489742735 -9.019496659696282 C-73.11684308522602 -9.283006343425907, -72.96843719617854 -9.54651602715553, -72.65184637860425 -10.108655082055243 M-72.65184637860425 -10.108655082055243 C-72.48217299935673 -10.369318956261257, -72.31249962010924 -10.62998283046727, -71.96992146464063 -11.156274872382308 M-72.65184637860425 -10.108655082055243 C-72.50925998770856 -10.327706068278045, -72.36667359681287 -10.546757054500848, -71.96992146464063 -11.156274872382308 M-71.96992146464063 -11.156274872382308 C-71.7736331715844 -11.419283302846305, -71.57734487852815 -11.6822917333103, -71.22227640812659 -12.158051136245302 M-71.96992146464063 -11.156274872382308 C-71.67612954826028 -11.549929275337796, -71.38233763187993 -11.943583678293283, -71.22227640812659 -12.158051136245302 M-71.22227640812659 -12.158051136245302 C-70.97239755407213 -12.451573056727254, -70.72251870001767 -12.745094977209206, -70.41198344296866 -13.10986736009567 M-71.22227640812659 -12.158051136245302 C-71.02116265842146 -12.394290790345494, -70.82004890871632 -12.630530444445686, -70.41198344296866 -13.10986736009567 M-70.41198344296866 -13.10986736009567 C-70.18090420837663 -13.348475641769932, -69.9498249737846 -13.587083923444194, -69.54237223676799 -14.007812326905677 M-70.41198344296866 -13.10986736009567 C-70.14790839226902 -13.382546530907918, -69.88383334156939 -13.655225701720164, -69.54237223676799 -14.007812326905677 M-69.54237223676799 -14.007812326905677 C-69.27251578307113 -14.25288881814267, -69.00265932937425 -14.497965309379664, -68.6170162085019 -14.848196188198107 M-69.54237223676799 -14.007812326905677 C-69.25405996675744 -14.269649902204614, -68.96574769674689 -14.531487477503552, -68.6170162085019 -14.848196188198107 M-68.6170162085019 -14.848196188198107 C-68.28866706144264 -15.110045895240098, -67.96031791438338 -15.37189560228209, -67.63971784457871 -15.627565626425149 M-68.6170162085019 -14.848196188198107 C-68.35829388192343 -15.054520358754173, -68.09957155534497 -15.260844529310239, -67.63971784457871 -15.627565626425149 M-67.63971784457871 -15.627565626425149 C-67.39763736183765 -15.79643049169012, -67.15555687909658 -15.965295356955092, -66.61449307360571 -16.342718045390885 M-67.63971784457871 -15.627565626425149 C-67.36341354945708 -15.820303541681843, -67.08710925433545 -16.013041456938538, -66.61449307360571 -16.342718045390885 M-66.61449307360571 -16.342718045390885 C-66.22034746129462 -16.581651431830583, -65.82620184898354 -16.820584818270277, -65.54555476407678 -16.99071473040609 M-66.61449307360571 -16.342718045390885 C-66.29428006261814 -16.53683305443208, -65.97406705163056 -16.730948063473274, -65.54555476407678 -16.99071473040609 M-65.54555476407678 -16.99071473040609 C-65.2507460637799 -17.144516240516992, -64.95593736348302 -17.298317750627895, -64.4372954127924 -17.56889292409717 M-65.54555476407678 -16.99071473040609 C-65.14707975027103 -17.19859888987313, -64.74860473646527 -17.406483049340167, -64.4372954127924 -17.56889292409717 M-64.4372954127924 -17.56889292409717 C-64.10651285096561 -17.715320551901822, -63.775730289138835 -17.86174817970647, -63.294269095147804 -18.07487676824742 M-64.4372954127924 -17.56889292409717 C-64.05029977576739 -17.740204412790447, -63.663304138742376 -17.911515901483725, -63.294269095147804 -18.07487676824742 M-63.294269095147804 -18.07487676824742 C-62.92267668542647 -18.211626209987454, -62.55108427570513 -18.348375651727487, -62.12117275146062 -18.506587066708033 M-63.294269095147804 -18.07487676824742 C-62.84273862357339 -18.24104415568873, -62.39120815199897 -18.407211543130042, -62.12117275146062 -18.506587066708033 M-62.12117275146062 -18.506587066708033 C-61.77342991910188 -18.60979531401273, -61.425687086743146 -18.71300356131743, -60.92282688623541 -18.862249829261067 M-62.12117275146062 -18.506587066708033 C-61.74428043448665 -18.618446728037767, -61.36738811751267 -18.7303063893675, -60.92282688623541 -18.862249829261067 M-60.92282688623541 -18.862249829261067 C-60.549712284112005 -18.947410802395414, -60.176597681988596 -19.032571775529757, -59.704155759676766 -19.140403561325773 M-60.92282688623541 -18.862249829261067 C-60.671305431042775 -18.919657960077902, -60.41978397585014 -18.977066090894738, -59.704155759676766 -19.140403561325773 M-59.704155759676766 -19.140403561325773 C-59.325022644241564 -19.201698863208115, -58.94588952880636 -19.262994165090454, -58.47016715284788 -19.3399052695533 M-59.704155759676766 -19.140403561325773 C-59.38433159405138 -19.192110252150638, -59.064507428426005 -19.243816942975503, -58.47016715284788 -19.3399052695533 M-58.47016715284788 -19.3399052695533 C-58.15725817660795 -19.37009122216306, -57.84434920036801 -19.400277174772828, -57.2259317896239 -19.45993515863156 M-58.47016715284788 -19.3399052695533 C-57.978994630326575 -19.387288092079544, -57.48782210780527 -19.434670914605793, -57.2259317896239 -19.45993515863156 M-57.2259317896239 -19.45993515863156 C-56.81246841775966 -19.473194124209613, -56.399005045895414 -19.48645308978767, -55.97656250000001 -19.5 M-57.2259317896239 -19.45993515863156 C-56.8904784005141 -19.4706924958999, -56.555025011404304 -19.481449833168238, -55.97656250000001 -19.5 M-55.97656250000001 -19.5 C-55.97656250000001 -19.5, -55.9765625 -19.5, -55.9765625 -19.5 M-55.97656250000001 -19.5 C-55.97656250000001 -19.5, -55.9765625 -19.5, -55.9765625 -19.5" stroke="#9370DB" stroke-width="1.3" fill="none" stroke-dasharray="0 0" style=""></path></g><g class="label" style="" transform="translate(-63.1015625, -12)"><rect></rect><foreignObject width="126.203125" height="24"><div xmlns="http://www.w3.org/1999/xhtml" style="display: table-cell; white-space: nowrap; line-height: 1.5; max-width: 200px; text-align: center;"><span class="nodeLabel"><p>Incoming request</p></span></div></foreignObject></g></g><g class="node default" id="flowchart-Mw-1" transform="translate(687.4375, 136)"><rect class="basic label-container" style="" x="-83.40625" y="-39" width="166.8125" height="78"></rect><g class="label" style="" transform="translate(-53.40625, -24)"><rect></rect><foreignObject width="106.8125" height="48"><div xmlns="http://www.w3.org/1999/xhtml" style="display: table-cell; white-space: nowrap; line-height: 1.5; max-width: 200px; text-align: center;"><span class="nodeLabel"><p>middleware.ts<br/>updateSession</p></span></div></foreignObject></g></g><g class="node default" id="flowchart-SB-3" transform="translate(687.4375, 276)"><rect class="basic label-container" style="" x="-113.3515625" y="-27" width="226.703125" height="54"></rect><g class="label" style="" transform="translate(-83.3515625, -12)"><rect></rect><foreignObject width="166.703125" height="24"><div xmlns="http://www.w3.org/1999/xhtml" style="display: table-cell; white-space: nowrap; line-height: 1.5; max-width: 200px; text-align: center;"><span class="nodeLabel"><p>Supabase auth.getUser</p></span></div></foreignObject></g></g><g class="node default" id="flowchart-Decide-5" transform="translate(687.4375, 448.1796875)"><polygon points="71.1796875,0 142.359375,-71.1796875 71.1796875,-142.359375 0,-71.1796875" class="label-container" transform="translate(-70.6796875, 71.1796875)"></polygon><g class="label" style="" transform="translate(-44.1796875, -12)"><rect></rect><foreignObject width="88.359375" height="24"><div xmlns="http://www.w3.org/1999/xhtml" style="display: table-cell; white-space: nowrap; line-height: 1.5; max-width: 200px; text-align: center;"><span class="nodeLabel"><p>Path match?</p></span></div></foreignObject></g></g><g class="node default" id="flowchart-Prot-7" transform="translate(252.6640625, 668.359375)"><rect class="basic label-container" style="" x="-64.875" y="-27" width="129.75" height="54"></rect><g class="label" style="" transform="translate(-34.875, -12)"><rect></rect><foreignObject width="69.75" height="24"><div xmlns="http://www.w3.org/1999/xhtml" style="display: table-cell; white-space: nowrap; line-height: 1.5; max-width: 200px; text-align: center;"><span class="nodeLabel"><p>Protected</p></span></div></foreignObject></g></g><g class="node default" id="flowchart-Auth-9" transform="translate(687.4375, 668.359375)"><rect class="basic label-container" style="" x="-70.015625" y="-27" width="140.03125" height="54"></rect><g class="label" style="" transform="translate(-40.015625, -12)"><rect></rect><foreignObject width="80.03125" height="24"><div xmlns="http://www.w3.org/1999/xhtml" style="display: table-cell; white-space: nowrap; line-height: 1.5; max-width: 200px; text-align: center;"><span class="nodeLabel"><p>Auth pages</p></span></div></foreignObject></g></g><g class="node default" id="flowchart-Pass-11" transform="translate(887.5078125, 668.359375)"><rect class="basic label-container" style="" x="-80.0546875" y="-27" width="160.109375" height="54"></rect><g class="label" style="" transform="translate(-50.0546875, -12)"><rect></rect><foreignObject width="100.109375" height="24"><div xmlns="http://www.w3.org/1999/xhtml" style="display: table-cell; white-space: nowrap; line-height: 1.5; max-width: 200px; text-align: center;"><span class="nodeLabel"><p>allow through</p></span></div></foreignObject></g></g><g class="node default" id="flowchart-Login-13" transform="translate(138, 808.359375)"><rect class="basic label-container" style="" x="-130" y="-39" width="260" height="78"></rect><g class="label" style="" transform="translate(-100, -24)"><rect></rect><foreignObject width="200" height="48"><div xmlns="http://www.w3.org/1999/xhtml" style="display: table; white-space: break-spaces; line-height: 1.5; max-width: 200px; text-align: center; width: 200px;"><span class="nodeLabel"><p>Redirect -&gt; /login?redirect=&lt;path&gt;</p></span></div></foreignObject></g></g><g class="node default" id="flowchart-Allow-15" transform="translate(367.328125, 808.359375)"><rect class="basic label-container" style="" x="-49.328125" y="-27" width="98.65625" height="54"></rect><g class="label" style="" transform="translate(-19.328125, -12)"><rect></rect><foreignObject width="38.65625" height="24"><div xmlns="http://www.w3.org/1999/xhtml" style="display: table-cell; white-space: nowrap; line-height: 1.5; max-width: 200px; text-align: center;"><span class="nodeLabel"><p>allow</p></span></div></foreignObject></g></g><g class="node default" id="flowchart-Dash-17" transform="translate(580.734375, 808.359375)"><rect class="basic label-container" style="" x="-114.078125" y="-27" width="228.15625" height="54"></rect><g class="label" style="" transform="translate(-84.078125, -12)"><rect></rect><foreignObject width="168.15625" height="24"><div xmlns="http://www.w3.org/1999/xhtml" style="display: table-cell; white-space: nowrap; line-height: 1.5; max-width: 200px; text-align: center;"><span class="nodeLabel"><p>Redirect -&gt; /dashboard</p></span></div></foreignObject></g></g><g class="node default" id="flowchart-Allow2-19" transform="translate(794.140625, 808.359375)"><rect class="basic label-container" style="" x="-49.328125" y="-27" width="98.65625" height="54"></rect><g class="label" style="" transform="translate(-19.328125, -12)"><rect></rect><foreignObject width="38.65625" height="24"><div xmlns="http://www.w3.org/1999/xhtml" style="display: table-cell; white-space: nowrap; line-height: 1.5; max-width: 200px; text-align: center;"><span class="nodeLabel"><p>allow</p></span></div></foreignObject></g></g></g></g></g></svg>